<?xml version="1.0" standalone="no"?>
<mlt LC_NUMERIC="C" version="7.27.0" title="Shotcut version 24.08.29" producer="main_bin">
  <profile description="automatic" width="1920" height="1080" progressive="1" sample_aspect_num="1" sample_aspect_den="1" display_aspect_num="16" display_aspect_den="9" frame_rate_num="24" frame_rate_den="1" colorspace="709"/>
  <playlist id="main_bin">
    <property name="xml_retain">1</property>
  </playlist>
  <producer id="black" in="00:00:00.000" out="00:00:43.083">
    <property name="length">00:00:43.125</property>
    <property name="eof">pause</property>
    <property name="resource">0</property>
    <property name="aspect_ratio">1</property>
    <property name="mlt_service">color</property>
    <property name="mlt_image_format">rgba</property>
    <property name="set.test_audio">0</property>
  </producer>
  <playlist id="background">
    <entry producer="black" in="00:00:00.000" out="00:00:43.083"/>
  </playlist>
  <chain id="chain0" out="00:00:06.458">
    <property name="length">00:00:06.500</property>
    <property name="eof">pause</property>
    <property name="resource">project/video_as_code-main/assets/bumpers/bumper.mp4</property>
    <property name="mlt_service">avformat-novalidate</property>
    <property name="meta.media.nb_streams">2</property>
    <property name="meta.media.0.stream.type">video</property>
    <property name="meta.media.0.stream.frame_rate">24</property>
    <property name="meta.media.0.stream.sample_aspect_ratio">0</property>
    <property name="meta.media.0.codec.width">1920</property>
    <property name="meta.media.0.codec.height">1080</property>
    <property name="meta.media.0.codec.rotate">0</property>
    <property name="meta.media.0.codec.pix_fmt">yuv420p</property>
    <property name="meta.media.0.codec.sample_aspect_ratio">0</property>
    <property name="meta.media.0.codec.colorspace">709</property>
    <property name="meta.media.0.codec.color_trc">1</property>
    <property name="meta.media.0.codec.name">h264</property>
    <property name="meta.media.0.codec.long_name">H.264 / AVC / MPEG-4 AVC / MPEG-4 part 10</property>
    <property name="meta.media.0.codec.bit_rate">819099</property>
    <property name="meta.attr.0.stream.creation_time.markup">2023-07-05T17:58:53.000000Z</property>
    <property name="meta.attr.0.stream.language.markup">eng</property>
    <property name="meta.attr.0.stream.handler_name.markup">Mainconcept Video Media Handler</property>
    <property name="meta.attr.0.stream.vendor_id.markup">[0][0][0][0]</property>
    <property name="meta.attr.0.stream.encoder.markup">AVC Coding</property>
    <property name="meta.media.1.stream.type">audio</property>
    <property name="meta.media.1.codec.sample_fmt">fltp</property>
    <property name="meta.media.1.codec.sample_rate">48000</property>
    <property name="meta.media.1.codec.channels">2</property>
    <property name="meta.media.1.codec.layout">stereo</property>
    <property name="meta.media.1.codec.name">aac</property>
    <property name="meta.media.1.codec.long_name">AAC (Advanced Audio Coding)</property>
    <property name="meta.media.1.codec.bit_rate">316542</property>
    <property name="meta.attr.1.stream.creation_time.markup">2023-07-05T17:58:53.000000Z</property>
    <property name="meta.attr.1.stream.language.markup">eng</property>
    <property name="meta.attr.1.stream.handler_name.markup">#Mainconcept MP4 Sound Media Handler</property>
    <property name="meta.attr.1.stream.vendor_id.markup">[0][0][0][0]</property>
    <property name="meta.attr.major_brand.markup">mp42</property>
    <property name="meta.attr.minor_version.markup">0</property>
    <property name="meta.attr.compatible_brands.markup">mp42mp41</property>
    <property name="meta.attr.creation_time.markup">2023-07-05T17:58:53.000000Z</property>
    <property name="seekable">1</property>
    <property name="meta.media.sample_aspect_num">1</property>
    <property name="meta.media.sample_aspect_den">1</property>
    <property name="audio_index">1</property>
    <property name="video_index">0</property>
    <property name="creation_time">2023-07-05T17:58:53</property>
    <property name="vstream">0</property>
    <property name="meta.media.frame_rate_num">24</property>
    <property name="meta.media.frame_rate_den">1</property>
    <property name="meta.media.colorspace">709</property>
    <property name="meta.media.color_trc">1</property>
    <property name="meta.media.has_b_frames">1</property>
    <property name="meta.media.width">1920</property>
    <property name="meta.media.height">1080</property>
    <property name="meta.media.aspect_ratio">1</property>
    <property name="meta.media.color_range">mpeg</property>
    <property name="astream">0</property>
    <property name="shotcut:skipConvert">1</property>
    <property name="shotcut:hash">679f9885ac20e7218ad06f1105d22230</property>
    <property name="meta.media.top_field_first">0</property>
    <property name="meta.media.progressive">1</property>
    <property name="shotcut:caption">bumper.mp4</property>
    <property name="xml">was here</property>
  </chain>
  <producer id="producer0" in="00:00:00.000" out="03:59:59.958">
    <property name="length">04:00:00.000</property>
    <property name="eof">pause</property>
    <property name="resource">project/video_as_code-main/assets/images/001.png</property>
    <property name="ttl">1</property>
    <property name="aspect_ratio">1</property>
    <property name="meta.media.progressive">1</property>
    <property name="seekable">1</property>
    <property name="format">1</property>
    <property name="meta.media.width">4000</property>
    <property name="meta.media.height">2250</property>
    <property name="mlt_service">qimage</property>
    <property name="creation_time">2024-09-10T16:28:47</property>
    <property name="shotcut:skipConvert">1</property>
    <property name="shotcut:hash">9597743b6766370b95c6e812edb85698</property>
    <property name="shotcut:caption">001.png</property>
    <property name="xml">was here</property>
  </producer>
  <tractor id="tractor0" in="00:00:00.000" out="00:00:00.000">
    <property name="shotcut:transition">lumaMix</property>
    <track producer="chain0" in="00:00:06.458" out="00:00:06.458"/>
    <track producer="producer0" in="00:00:00.000" out="00:00:00.000"/>
    <transition id="transition0">
      <property name="a_track">0</property>
      <property name="b_track">1</property>
      <property name="factory">loader</property>
      <property name="mlt_service">luma</property>
      <property name="alpha_over">1</property>
      <property name="fix_background_alpha">1</property>
    </transition>
    <transition id="transition1">
      <property name="a_track">0</property>
      <property name="b_track">1</property>
      <property name="mlt_service">mix</property>
      <property name="start">-1</property>
      <property name="accepts_blanks">1</property>
    </transition>
  </tractor>
  <producer id="producer1" in="00:00:00.000" out="03:59:59.958">
    <property name="length">04:00:00.000</property>
    <property name="eof">pause</property>
    <property name="resource">project/video_as_code-main/assets/images/002.png</property>
    <property name="ttl">1</property>
    <property name="aspect_ratio">1</property>
    <property name="meta.media.progressive">1</property>
    <property name="seekable">1</property>
    <property name="format">1</property>
    <property name="meta.media.width">4000</property>
    <property name="meta.media.height">2250</property>
    <property name="mlt_service">qimage</property>
    <property name="creation_time">2024-09-10T16:28:47</property>
    <property name="shotcut:skipConvert">1</property>
    <property name="shotcut:hash">3fe123181b9c717a161bb345a6a90aca</property>
    <property name="shotcut:caption">002.png</property>
    <property name="xml">was here</property>
  </producer>
  <producer id="producer2" in="00:00:00.000" out="03:59:59.958">
    <property name="length">04:00:00.000</property>
    <property name="eof">pause</property>
    <property name="resource">project/video_as_code-main/assets/images/003.png</property>
    <property name="ttl">1</property>
    <property name="aspect_ratio">1</property>
    <property name="meta.media.progressive">1</property>
    <property name="seekable">1</property>
    <property name="format">2</property>
    <property name="meta.media.width">4000</property>
    <property name="meta.media.height">2250</property>
    <property name="mlt_service">qimage</property>
    <property name="creation_time">2024-09-10T16:28:47</property>
    <property name="shotcut:skipConvert">1</property>
    <property name="shotcut:hash">9d392615093340b7390afb3d04876697</property>
    <property name="shotcut:caption">003.png</property>
  </producer>
  <producer id="producer3" in="00:00:00.000" out="03:59:59.958">
    <property name="length">04:00:00.000</property>
    <property name="eof">pause</property>
    <property name="resource">project/video_as_code-main/assets/images/004.png</property>
    <property name="ttl">1</property>
    <property name="aspect_ratio">1</property>
    <property name="meta.media.progressive">1</property>
    <property name="seekable">1</property>
    <property name="format">2</property>
    <property name="meta.media.width">4000</property>
    <property name="meta.media.height">2250</property>
    <property name="mlt_service">qimage</property>
    <property name="creation_time">2024-09-10T16:28:47</property>
    <property name="shotcut:skipConvert">1</property>
    <property name="shotcut:hash">d4510676888f1df950b90efe66a359c0</property>
    <property name="shotcut:caption">004.png</property>
    <property name="xml">was here</property>
  </producer>
  <chain id="chain1" out="00:00:06.458">
    <property name="length">00:00:06.500</property>
    <property name="eof">pause</property>
    <property name="resource">project/video_as_code-main/assets/bumpers/bumper.mp4</property>
    <property name="mlt_service">avformat-novalidate</property>
    <property name="meta.media.nb_streams">2</property>
    <property name="meta.media.0.stream.type">video</property>
    <property name="meta.media.0.stream.frame_rate">24</property>
    <property name="meta.media.0.stream.sample_aspect_ratio">0</property>
    <property name="meta.media.0.codec.width">1920</property>
    <property name="meta.media.0.codec.height">1080</property>
    <property name="meta.media.0.codec.rotate">0</property>
    <property name="meta.media.0.codec.pix_fmt">yuv420p</property>
    <property name="meta.media.0.codec.sample_aspect_ratio">0</property>
    <property name="meta.media.0.codec.colorspace">709</property>
    <property name="meta.media.0.codec.color_trc">1</property>
    <property name="meta.media.0.codec.name">h264</property>
    <property name="meta.media.0.codec.long_name">H.264 / AVC / MPEG-4 AVC / MPEG-4 part 10</property>
    <property name="meta.media.0.codec.bit_rate">819099</property>
    <property name="meta.attr.0.stream.creation_time.markup">2023-07-05T17:58:53.000000Z</property>
    <property name="meta.attr.0.stream.language.markup">eng</property>
    <property name="meta.attr.0.stream.handler_name.markup">Mainconcept Video Media Handler</property>
    <property name="meta.attr.0.stream.vendor_id.markup">[0][0][0][0]</property>
    <property name="meta.attr.0.stream.encoder.markup">AVC Coding</property>
    <property name="meta.media.1.stream.type">audio</property>
    <property name="meta.media.1.codec.sample_fmt">fltp</property>
    <property name="meta.media.1.codec.sample_rate">48000</property>
    <property name="meta.media.1.codec.channels">2</property>
    <property name="meta.media.1.codec.layout">stereo</property>
    <property name="meta.media.1.codec.name">aac</property>
    <property name="meta.media.1.codec.long_name">AAC (Advanced Audio Coding)</property>
    <property name="meta.media.1.codec.bit_rate">316542</property>
    <property name="meta.attr.1.stream.creation_time.markup">2023-07-05T17:58:53.000000Z</property>
    <property name="meta.attr.1.stream.language.markup">eng</property>
    <property name="meta.attr.1.stream.handler_name.markup">#Mainconcept MP4 Sound Media Handler</property>
    <property name="meta.attr.1.stream.vendor_id.markup">[0][0][0][0]</property>
    <property name="meta.attr.major_brand.markup">mp42</property>
    <property name="meta.attr.minor_version.markup">0</property>
    <property name="meta.attr.compatible_brands.markup">mp42mp41</property>
    <property name="meta.attr.creation_time.markup">2023-07-05T17:58:53.000000Z</property>
    <property name="seekable">1</property>
    <property name="meta.media.sample_aspect_num">1</property>
    <property name="meta.media.sample_aspect_den">1</property>
    <property name="audio_index">1</property>
    <property name="video_index">0</property>
    <property name="creation_time">2023-07-05T17:58:53</property>
    <property name="vstream">0</property>
    <property name="meta.media.frame_rate_num">24</property>
    <property name="meta.media.frame_rate_den">1</property>
    <property name="meta.media.colorspace">709</property>
    <property name="meta.media.color_trc">1</property>
    <property name="meta.media.has_b_frames">1</property>
    <property name="meta.media.width">1920</property>
    <property name="meta.media.height">1080</property>
    <property name="meta.media.aspect_ratio">1</property>
    <property name="meta.media.color_range">mpeg</property>
    <property name="astream">0</property>
    <property name="shotcut:skipConvert">1</property>
    <property name="shotcut:hash">679f9885ac20e7218ad06f1105d22230</property>
    <property name="meta.media.top_field_first">0</property>
    <property name="meta.media.progressive">1</property>
    <property name="shotcut:caption">bumper.mp4</property>
    <property name="xml">was here</property>
  </chain>
  <playlist id="playlist0">
    <property name="shotcut:video">1</property>
    <property name="shotcut:name">V1</property>
    <property name="shotcut:lock">0</property>
    <entry producer="chain0" in="00:00:00.000" out="00:00:06.417"/>
    <entry producer="tractor0" in="00:00:00.000" out="00:00:00.000"/>
    <entry producer="producer0" in="00:00:00.042" out="00:00:05.875"/>
    <entry producer="producer1" in="00:00:00.042" out="00:00:09.667"/>
    <blank length="00:00:00.042"/>
    <entry producer="producer2" in="00:00:03.125" out="00:00:13.042"/>
    <blank length="00:00:00.083"/>
    <entry producer="producer3" in="00:00:06.958" out="00:00:11.417"/>
    <entry producer="chain1" in="00:00:00.000" out="00:00:06.458"/>
  </playlist>
  <chain id="chain2" out="00:00:15.000">
    <property name="length">00:00:15.042</property>
    <property name="eof">pause</property>
    <property name="resource">project/video_as_code-main/assets/bumpers/bumper.mp3</property>
    <property name="mlt_service">avformat-novalidate</property>
    <property name="meta.media.nb_streams">1</property>
    <property name="meta.media.0.stream.type">audio</property>
    <property name="meta.media.0.codec.sample_fmt">fltp</property>
    <property name="meta.media.0.codec.sample_rate">44100</property>
    <property name="meta.media.0.codec.channels">2</property>
    <property name="meta.media.0.codec.layout">stereo</property>
    <property name="meta.media.0.codec.name">mp3float</property>
    <property name="meta.media.0.codec.long_name">MP3 (MPEG audio layer 3)</property>
    <property name="meta.media.0.codec.bit_rate">175847</property>
    <property name="meta.attr.0.stream.encoder.markup">Lavc58.13</property>
    <property name="meta.attr.encoded_by.markup">Pro Tools</property>
    <property name="meta.attr.originator_reference.markup">aaOrPtwUNeUk</property>
    <property name="meta.attr.date.markup">2022-05-19</property>
    <property name="meta.attr.coding_history.markup">A=Microsoft PCM Format F=44100 W=24 M=stereo
</property>
    <property name="meta.attr.time_reference.markup">9223372036854775807</property>
    <property name="meta.attr.encoder.markup">Lavf58.76.100</property>
    <property name="seekable">1</property>
    <property name="audio_index">0</property>
    <property name="video_index">-1</property>
    <property name="creation_time">2024-09-10T16:28:47</property>
    <property name="astream">0</property>
    <property name="shotcut:skipConvert">1</property>
    <property name="shotcut:hash">84d835c10e7e2afdb0ed90175abce9ba</property>
    <property name="shotcut:caption">bumper.mp3</property>
    <property name="xml">was here</property>
    <filter id="filter0" in="00:00:00.250" out="00:00:08.125">
      <property name="window">75</property>
      <property name="max_gain">20dB</property>
      <property name="level">00:00:04.667=0;00:00:07.875=-60</property>
      <property name="mlt_service">volume</property>
      <property name="shotcut:filter">fadeOutVolume</property>
      <property name="shotcut:animOut">00:00:03.250</property>
    </filter>
  </chain>
  <chain id="chain3" out="00:00:15.000">
    <property name="length">00:00:15.042</property>
    <property name="eof">pause</property>
    <property name="resource">project/video_as_code-main/assets/bumpers/bumper.mp3</property>
    <property name="mlt_service">avformat-novalidate</property>
    <property name="meta.media.nb_streams">1</property>
    <property name="meta.media.0.stream.type">audio</property>
    <property name="meta.media.0.codec.sample_fmt">fltp</property>
    <property name="meta.media.0.codec.sample_rate">44100</property>
    <property name="meta.media.0.codec.channels">2</property>
    <property name="meta.media.0.codec.layout">stereo</property>
    <property name="meta.media.0.codec.name">mp3float</property>
    <property name="meta.media.0.codec.long_name">MP3 (MPEG audio layer 3)</property>
    <property name="meta.media.0.codec.bit_rate">175847</property>
    <property name="meta.attr.0.stream.encoder.markup">Lavc58.13</property>
    <property name="meta.attr.encoded_by.markup">Pro Tools</property>
    <property name="meta.attr.originator_reference.markup">aaOrPtwUNeUk</property>
    <property name="meta.attr.date.markup">2022-05-19</property>
    <property name="meta.attr.coding_history.markup">A=Microsoft PCM Format F=44100 W=24 M=stereo
</property>
    <property name="meta.attr.time_reference.markup">9223372036854775807</property>
    <property name="meta.attr.encoder.markup">Lavf58.76.100</property>
    <property name="seekable">1</property>
    <property name="audio_index">0</property>
    <property name="video_index">-1</property>
    <property name="creation_time">2024-09-10T16:28:47</property>
    <property name="astream">0</property>
    <property name="shotcut:skipConvert">1</property>
    <property name="shotcut:hash">84d835c10e7e2afdb0ed90175abce9ba</property>
    <property name="shotcut:caption">bumper.mp3</property>
    <property name="xml">was here</property>
    <filter id="filter1" out="00:00:08.958">
      <property name="start">1</property>
      <property name="level">00:00:00.000=0;00:00:02.833=1</property>
      <property name="mlt_service">brightness</property>
      <property name="shotcut:filter">fadeInBrightness</property>
      <property name="alpha">1</property>
      <property name="shotcut:animIn">00:00:02.875</property>
    </filter>
  </chain>
  <playlist id="playlist1">
    <property name="shotcut:audio">1</property>
    <property name="shotcut:name">A1</property>
    <property name="shotcut:lock">0</property>
    <entry producer="chain2" in="00:00:00.250" out="00:00:08.125"/>
    <blank length="00:00:26.208"/>
    <entry producer="chain3" in="00:00:00.000" out="00:00:08.958"/>
  </playlist>
  <chain id="chain4" out="00:00:05.875">
    <property name="length">00:00:05.917</property>
    <property name="eof">pause</property>
    <property name="resource">project/video_as_code-main/assets/audio/001.mp3</property>
    <property name="mlt_service">avformat-novalidate</property>
    <property name="meta.media.nb_streams">1</property>
    <property name="meta.media.0.stream.type">audio</property>
    <property name="meta.media.0.codec.sample_fmt">fltp</property>
    <property name="meta.media.0.codec.sample_rate">48000</property>
    <property name="meta.media.0.codec.channels">1</property>
    <property name="meta.media.0.codec.layout">mono</property>
    <property name="meta.media.0.codec.name">mp3float</property>
    <property name="meta.media.0.codec.long_name">MP3 (MPEG audio layer 3)</property>
    <property name="meta.media.0.codec.bit_rate">192000</property>
    <property name="seekable">1</property>
    <property name="audio_index">0</property>
    <property name="video_index">-1</property>
    <property name="creation_time">2024-09-10T16:28:47</property>
    <property name="astream">0</property>
    <property name="shotcut:skipConvert">1</property>
    <property name="shotcut:hash">6252366200477974b376e69375adf59c</property>
    <property name="shotcut:caption">001.mp3</property>
    <property name="xml">was here</property>
  </chain>
  <chain id="chain5" out="00:00:06.708">
    <property name="length">00:00:06.750</property>
    <property name="eof">pause</property>
    <property name="resource">project/video_as_code-main/assets/audio/002.mp3</property>
    <property name="mlt_service">avformat-novalidate</property>
    <property name="meta.media.nb_streams">1</property>
    <property name="meta.media.0.stream.type">audio</property>
    <property name="meta.media.0.codec.sample_fmt">fltp</property>
    <property name="meta.media.0.codec.sample_rate">48000</property>
    <property name="meta.media.0.codec.channels">1</property>
    <property name="meta.media.0.codec.layout">mono</property>
    <property name="meta.media.0.codec.name">mp3float</property>
    <property name="meta.media.0.codec.long_name">MP3 (MPEG audio layer 3)</property>
    <property name="meta.media.0.codec.bit_rate">192000</property>
    <property name="seekable">1</property>
    <property name="audio_index">0</property>
    <property name="video_index">-1</property>
    <property name="creation_time">2024-09-10T16:28:47</property>
    <property name="astream">0</property>
    <property name="shotcut:skipConvert">1</property>
    <property name="shotcut:hash">e672d5775fc9369b9e8c695e9d357c82</property>
    <property name="shotcut:caption">002.mp3</property>
    <property name="xml">was here</property>
  </chain>
  <chain id="chain6" out="00:00:05.917">
    <property name="length">00:00:05.958</property>
    <property name="eof">pause</property>
    <property name="resource">project/video_as_code-main/assets/audio/003.mp3</property>
    <property name="mlt_service">avformat-novalidate</property>
    <property name="meta.media.nb_streams">1</property>
    <property name="meta.media.0.stream.type">audio</property>
    <property name="meta.media.0.codec.sample_fmt">fltp</property>
    <property name="meta.media.0.codec.sample_rate">48000</property>
    <property name="meta.media.0.codec.channels">1</property>
    <property name="meta.media.0.codec.layout">mono</property>
    <property name="meta.media.0.codec.name">mp3float</property>
    <property name="meta.media.0.codec.long_name">MP3 (MPEG audio layer 3)</property>
    <property name="meta.media.0.codec.bit_rate">192000</property>
    <property name="seekable">1</property>
    <property name="audio_index">0</property>
    <property name="video_index">-1</property>
    <property name="creation_time">2024-09-10T16:28:47</property>
    <property name="astream">0</property>
    <property name="shotcut:skipConvert">1</property>
    <property name="shotcut:hash">17103afe0974a1a297cc5dabbe23e014</property>
    <property name="shotcut:caption">003.mp3</property>
    <property name="xml">was here</property>
  </chain>
  <chain id="chain7" out="00:00:11.750">
    <property name="length">00:00:11.792</property>
    <property name="eof">pause</property>
    <property name="resource">project/video_as_code-main/assets/audio/004.mp3</property>
    <property name="mlt_service">avformat-novalidate</property>
    <property name="meta.media.nb_streams">1</property>
    <property name="meta.media.0.stream.type">audio</property>
    <property name="meta.media.0.codec.sample_fmt">fltp</property>
    <property name="meta.media.0.codec.sample_rate">48000</property>
    <property name="meta.media.0.codec.channels">1</property>
    <property name="meta.media.0.codec.layout">mono</property>
    <property name="meta.media.0.codec.name">mp3float</property>
    <property name="meta.media.0.codec.long_name">MP3 (MPEG audio layer 3)</property>
    <property name="meta.media.0.codec.bit_rate">192000</property>
    <property name="seekable">1</property>
    <property name="audio_index">0</property>
    <property name="video_index">-1</property>
    <property name="creation_time">2024-09-10T16:28:47</property>
    <property name="astream">0</property>
    <property name="shotcut:skipConvert">1</property>
    <property name="shotcut:hash">e2759ea2fbca6f8f17cffd36356d18cb</property>
    <property name="shotcut:caption">004.mp3</property>
    <property name="xml">was here</property>
  </chain>
  <playlist id="playlist2">
    <property name="shotcut:audio">1</property>
    <property name="shotcut:name">A2</property>
    <property name="shotcut:lock">0</property>
    <blank length="00:00:06.667"/>
    <entry producer="chain4" in="00:00:00.000" out="00:00:05.875"/>
    <blank length="00:00:00.083"/>
    <entry producer="chain5" in="00:00:00.208" out="00:00:06.708"/>
    <blank length="00:00:00.125"/>
    <entry producer="chain6" in="00:00:00.208" out="00:00:05.917"/>
    <blank length="00:00:00.083"/>
    <entry producer="chain7" in="00:00:00.625" out="00:00:11.750"/>
  </playlist>
  <tractor id="tractor1" title="Shotcut version 24.08.29" in="00:00:00.000" out="00:00:43.083">
    <property name="shotcut">1</property>
    <property name="shotcut:projectAudioChannels">2</property>
    <property name="shotcut:projectFolder">0</property>
    <property name="shotcut:scaleFactor">2.207</property>
    <track producer="background"/>
    <track producer="playlist0"/>
    <track producer="playlist1" hide="video"/>
    <track producer="playlist2" hide="video"/>
    <transition id="transition2">
      <property name="a_track">0</property>
      <property name="b_track">1</property>
      <property name="mlt_service">mix</property>
      <property name="always_active">1</property>
      <property name="sum">1</property>
    </transition>
    <transition id="transition3">
      <property name="a_track">0</property>
      <property name="b_track">1</property>
      <property name="version">0.1</property>
      <property name="mlt_service">frei0r.cairoblend</property>
      <property name="disable">1</property>
    </transition>
    <transition id="transition4">
      <property name="a_track">0</property>
      <property name="b_track">2</property>
      <property name="mlt_service">mix</property>
      <property name="always_active">1</property>
      <property name="sum">1</property>
    </transition>
    <transition id="transition5">
      <property name="a_track">0</property>
      <property name="b_track">3</property>
      <property name="mlt_service">mix</property>
      <property name="always_active">1</property>
      <property name="sum">1</property>
    </transition>
  </tractor>
</mlt>
